<?xml version="1.0" encoding="UTF-8"?>
<svg id="_레이어_1" data-name="레이어 1" xmlns="http://www.w3.org/2000/svg" viewBox="0 0 255.96 265.16">
  <defs>
    <style>
      .cls-1 {
        fill: #fff;
        stroke-width: 0px;
      }
    </style>
  </defs>
  <path class="cls-1" d="m255.77,145.66c0,29.66.02,59.32-.02,88.98-.01,7.27-1.08,14.43-8.84,17.46-4.4,1.72-9.36,2.46-14.12,2.75-36.08,2.17-72.18,4.05-108.26,6.18-18.78,1.11-37.57,2.28-56.31,3.94-11.87,1.06-20.73-2.48-27.81-12.49-9.7-13.7-20.3-26.77-30.73-39.94C2.99,204.1-.07,194.9,0,183.95c.32-50.16.14-100.31.14-150.47,0-1.83-.06-3.67.07-5.5C.93,17.52,6.48,11.86,16.96,11.11c23.92-1.71,47.85-3.29,71.77-5.01,25.08-1.81,50.18-3.38,75.2-5.75,13.9-1.32,25.97.97,37.36,9.78,14.71,11.38,30.35,21.56,45.71,32.07,6.1,4.17,9.07,9.12,8.94,16.98-.45,28.82-.18,57.65-.18,86.48Zm-17.76,1.28c0-25.65.03-51.3-.02-76.95-.02-7.74-2.98-10.38-10.28-9.88-19.43,1.34-38.86,2.7-58.3,3.83-34.74,2.02-69.49,3.86-104.24,5.81-10.35.58-12.11,2.44-12.11,12.65,0,49.64,0,99.27,0,148.91,0,10.84,3.97,14.25,14.72,13.47,19.76-1.43,39.53-2.69,59.3-3.82,32.75-1.86,65.51-3.52,98.26-5.36,10.31-.58,12.65-3.24,12.66-13.71.01-24.99,0-49.97,0-74.96Zm-19.44-104.46l.63-1.29c-1.16-1.07-2.22-2.27-3.49-3.18-6.73-4.87-13.89-9.24-20.18-14.61-8.47-7.23-17.89-9.65-28.7-8.45-7.77.87-15.59,1.41-23.39,1.98-34.05,2.45-68.11,4.86-102.17,7.28-4.65.33-9.33.45-13.95,1.04-1.43.18-2.89,1.43-3.94,2.56-.31.34.43,2.28,1.18,2.88,7.52,6.03,15.03,12.08,22.77,17.83,7.24,5.38,15.67,3.45,23.72,2.99,37.42-2.14,74.83-4.4,112.25-6.67,11.77-.71,23.52-1.57,35.28-2.36Z"/>
  <path class="cls-1" d="m114.45,130.09v75.63c4.94,1.26,10.04,2.56,15.44,3.94.1,5.33-3.5,8.15-7.77,8.58-13.37,1.33-26.81,1.91-40.17,2.77-1-5.39.46-7.73,5.43-8.93,8.71-2.1,7.2-1.34,7.21-9.48.06-29.49-.08-58.98.13-88.47.03-4.56-1.35-6.1-5.81-6.34-2.58-.14-6.99,2.02-7.44-3.05-.38-4.32,3.84-8.41,8.54-8.82,8.29-.71,16.73-.61,24.86-2.17,10.46-2,16.16,1.7,21.67,10.81,13.23,21.91,27.92,42.94,42.03,64.32.67,1.02,1.45,1.97,3.06,4.14,0-2.88,0-4.31,0-5.73,0-19.66-.08-39.32.08-58.98.03-4.14-.61-6.64-5.53-6.45-2.57.1-5.19-.85-7.72-1.31-.41-5.69,2.05-9.51,7.43-9.94,11.92-.95,23.88-1.33,35.72-1.93,1.81,6.98,1.77,7.02-11.82,11.7,0,1.81,0,3.78,0,5.75,0,33.99-.1,67.98.12,101.97.03,4.54-1.49,6.79-5.65,7.75-1.29.3-2.55.77-3.79,1.24-10.69,4-17.46,2.54-23.93-6.86-9.81-14.24-18.94-28.95-28.31-43.49-7.12-11.04-14.18-22.13-21.27-33.19-.58-.91-1.26-1.75-2.51-3.47Z"/>
</svg>