<!DOCTYPE svg PUBLIC "-//W3C//DTD SVG 1.1//EN" "http://www.w3.org/Graphics/SVG/1.1/DTD/svg11.dtd">
<!-- Uploaded to: SVG Repo, www.svgrepo.com, Transformed by: SVG Repo Mixer Tools -->
<svg fill="#ffffff" version="1.1" id="Capa_1" xmlns="http://www.w3.org/2000/svg" xmlns:xlink="http://www.w3.org/1999/xlink" width="800px" height="800px" viewBox="0 0 193.997 193.997" xml:space="preserve" transform="rotate(0)" stroke="#ffffff">
<g id="SVGRepo_bgCarrier" stroke-width="0"/>
<g id="SVGRepo_tracerCarrier" stroke-linecap="round" stroke-linejoin="round"/>
<g id="SVGRepo_iconCarrier"> <g> <path d="M166.037,94.842c-4.779-19.811-32.087-35.41-47.807-46.125C94.499,32.541,68.83,18.44,43.255,5.223 C42.561-1.866,31.402-1.762,31.55,5.674c0.205,10.169,0.12,20.369-0.111,30.588c-0.931,0.283-1.404,1.826-0.357,2.62 c0.098,0.075,0.2,0.144,0.298,0.22c-1.283,50.367-6.254,101.177-1.681,151.072c0.29,3.179,3.079,4.365,5.275,3.597 c0.484,0.082,0.994,0.079,1.542-0.09c25.346-7.824,48.358-23.625,69.46-39.282c18.646-13.835,44.828-32.433,55.391-54.056 C164.201,100.537,166.878,98.336,166.037,94.842z M38.128,184.731c0.523-5.48,0.978-10.993,1.427-16.506 c3.775,3.475,8.032,6.821,12.498,8.827C47.458,179.676,42.847,182.276,38.128,184.731z M55.927,174.889 c-2.722-2.028-5.755-3.627-8.571-5.527c-2.605-1.756-5.037-3.744-7.399-5.811c0.413-5.329,0.78-10.676,1.127-16.028 c3.907,3.725,7.867,7.39,11.927,10.943c3.579,3.132,8.258,8.089,13.176,10.148C62.794,170.745,59.389,172.859,55.927,174.889z M70.506,165.861c-4.114-4.655-10.881-7.985-15.679-11.908c-4.62-3.774-9.051-7.771-13.404-11.853 c0.22-3.603,0.342-7.227,0.532-10.838c7.838,5.479,14.961,11.895,21.985,18.396c3.956,3.664,8.125,8.318,12.684,12.123 C74.592,163.154,72.563,164.528,70.506,165.861z M81.884,158.167c-5.37-4.93-11.725-9.394-16.929-13.872 c-7.227-6.222-14.678-12.234-22.792-17.254c0.125-2.513,0.192-5.032,0.304-7.548c10.382,5.113,20.041,11.683,29.428,18.408 c5.959,4.271,11.728,9.95,17.951,14.481C87.204,154.332,84.568,156.291,81.884,158.167z M104.217,141.255 c-3.195,2.635-6.446,5.169-9.717,7.665c-7.282-6.185-16.629-11.249-23.944-16.267c-8.91-6.11-18.128-11.812-27.965-16.255 c0.282-6.655,0.488-13.317,0.686-19.979c17.459,17.148,39.618,34.088,60.892,44.698c0.052,0.026,0.104,0.023,0.155,0.044 C104.288,141.191,104.254,141.225,104.217,141.255z M107.204,138.67c-0.104-0.273-0.263-0.538-0.544-0.78 c-9.36-8.038-20.692-13.957-30.96-20.789c-11.392-7.579-22.068-15.966-32.273-25.035c0.194-7.21,0.324-14.416,0.416-21.617 c24.368,19.686,48.272,40.785,74.045,58.328C114.426,132.164,110.891,135.487,107.204,138.67z M121.868,124.824 c-24.735-20.902-51.675-40.101-77.986-59.166c0.056-5.798,0.039-11.58,0.032-17.364c30.122,21.444,61.486,39.953,88.602,65.598 C128.986,117.549,125.457,121.211,121.868,124.824z M97.893,77.766c-17.67-11.736-36.19-22.134-53.971-33.688 c-0.018-4.263-0.12-8.496-0.168-12.748c31.727,24.952,65.613,50.221,99.975,71.176c-2.379,2.343-4.733,4.709-7.067,7.104 C127.176,96.207,111.15,86.572,97.893,77.766z M148.598,97.881c-18.727-12.757-37.605-25.25-56.155-38.283 C76.759,48.578,60.948,35.963,43.7,27.282c-0.058-3.994-0.06-8.007-0.159-11.984c17.766,10.901,35.982,21.061,53.406,32.54 c13.1,8.63,25.91,17.605,38.023,27.59c6.652,5.484,11.83,12.498,17.778,18.56C151.335,95.252,149.98,96.581,148.598,97.881z"/> </g> </g>
</svg>