<svg width="18" height="18" viewBox="0 0 18 18" fill="none" xmlns="http://www.w3.org/2000/svg">
<path d="M14.9393 17.0607C15.5251 17.6464 16.4749 17.6464 17.0607 17.0607C17.6464 16.4749 17.6464 15.5251 17.0607 14.9393L14.9393 17.0607ZM2 0.5C1.17157 0.5 0.5 1.17157 0.5 2V15.5C0.5 16.3284 1.17157 17 2 17C2.82843 17 3.5 16.3284 3.5 15.5V3.5H15.5C16.3284 3.5 17 2.82843 17 2C17 1.17157 16.3284 0.5 15.5 0.5H2ZM17.0607 14.9393L3.06066 0.93934L0.93934 3.06066L14.9393 17.0607L17.0607 14.9393Z" fill="#3A89FF"/>
</svg>
