<svg width="41" height="41" viewBox="0 0 41 41" fill="none" xmlns="http://www.w3.org/2000/svg">
<path d="M16.4374 6.26306C18.3464 3.32013 22.6536 3.32013 24.5626 6.26306C25.5475 7.78136 27.2968 8.62378 29.0979 8.44713C32.589 8.10474 35.2745 11.4723 34.1639 14.7997C33.5909 16.5163 34.0229 18.4092 35.284 19.7073C37.7284 22.2232 36.7699 26.4225 33.476 27.6288C31.7766 28.2511 30.566 29.7691 30.3375 31.5643C29.8944 35.0441 26.0137 36.913 23.0169 35.0897C21.4708 34.1491 19.5292 34.1491 17.9831 35.0897C14.9863 36.913 11.1056 35.0441 10.6625 31.5643C10.434 29.7691 9.22341 28.2511 7.52403 27.6288C4.2301 26.4225 3.27164 22.2232 5.71599 19.7073C6.97708 18.4092 7.40912 16.5163 6.83611 14.7997C5.72546 11.4723 8.41101 8.10474 11.9021 8.44713C13.7032 8.62378 15.4525 7.78136 16.4374 6.26306Z" fill="#3A89FF"/>
<circle cx="19" cy="20" r="3" fill="white"/>
<circle cx="25.5" cy="22.5" r="1.5" fill="white"/>
<circle cx="24" cy="16" r="1" fill="white"/>
</svg>
