<svg width="474" height="474" viewBox="0 0 474 474" fill="none" xmlns="http://www.w3.org/2000/svg">
<path d="M228.181 436.048C217.288 442.291 203.571 440.519 194.621 431.714L147.06 384.919C144.389 382.291 141.219 380.226 137.735 378.846L75.7038 354.271C64.0313 349.647 56.864 337.818 58.1683 325.331L65.1001 258.969C65.4893 255.243 65.1268 251.477 64.0339 247.893L44.5716 184.072C40.9093 172.063 45.6888 159.084 56.265 152.319L112.47 116.362C115.626 114.344 118.345 111.712 120.465 108.623L158.228 53.6151C165.333 43.2643 178.461 38.9089 190.344 42.9592L253.499 64.4839C257.046 65.6925 260.798 66.1772 264.535 65.9092L331.087 61.1362C343.61 60.2381 355.2 67.7858 359.442 79.6023L381.99 142.399C383.256 145.925 385.217 149.162 387.757 151.916L432.982 200.972C441.492 210.203 442.818 223.97 436.224 234.655L401.186 291.437C399.219 294.625 397.911 298.176 397.341 301.879L387.185 367.824C385.274 380.233 375.337 389.852 362.872 391.359L296.632 399.368C292.913 399.818 289.322 401.009 286.071 402.872L228.181 436.048Z" fill="#FFCC4A"/>
<path d="M225.76 192.576C225.266 201.387 222.677 209.195 218.942 214.696C215.195 220.216 210.413 223.265 205.526 222.991C200.638 222.717 196.228 219.152 193.12 213.248C190.024 207.364 188.324 199.316 188.818 190.505C189.312 181.694 191.901 173.886 195.636 168.385C199.383 162.865 204.164 159.816 209.052 160.09C213.94 160.364 218.35 163.929 221.457 169.833C224.554 175.717 226.254 183.765 225.76 192.576Z" fill="white" stroke="black" stroke-width="2"/>
<path d="M289.534 193.126C289.388 201.95 287.108 209.854 283.593 215.497C280.066 221.161 275.409 224.396 270.514 224.315C265.619 224.234 261.072 220.845 257.735 215.068C254.409 209.311 252.393 201.335 252.539 192.512C252.686 183.689 254.966 175.785 258.481 170.141C262.008 164.478 266.665 161.242 271.56 161.324C276.455 161.405 281.002 164.793 284.339 170.57C287.665 176.328 289.681 184.303 289.534 193.126Z" fill="white" stroke="black" stroke-width="2"/>
</svg>
