<svg width="200" height="200" viewBox="0 0 391 475" fill="none" xmlns="http://www.w3.org/2000/svg">
<path d="M155.85 408.664C142.771 425.809 116.034 422.356 107.741 402.45L95.4314 372.906C90.5543 361.2 78.419 354.233 65.8512 355.924L34.1305 360.192C12.759 363.068 -3.70498 341.721 4.50597 321.781L16.6931 292.185C21.5217 280.46 17.8668 266.953 7.78433 259.262L-17.6636 239.85C-34.8089 226.771 -31.3558 200.034 -11.4503 191.741L18.0945 179.431C29.8002 174.554 36.7668 162.419 35.0758 149.851L30.8077 118.13C27.9322 96.7589 49.2796 80.2949 69.2192 88.5058L98.8147 100.693C110.541 105.522 124.048 101.867 131.739 91.7842L151.151 66.3363C164.229 49.191 190.966 52.6441 199.259 72.5496L211.569 102.094C216.446 113.8 228.581 120.767 241.149 119.076L272.87 114.808C294.241 111.932 310.705 133.279 302.494 153.219L290.307 182.815C285.479 194.54 289.133 208.047 299.216 215.738L324.664 235.15C341.809 248.229 338.356 274.966 318.451 283.259L288.906 295.569C277.2 300.446 270.234 312.581 271.925 325.149L276.193 356.87C279.068 378.241 257.721 394.705 237.781 386.494L208.186 374.307C196.46 369.479 182.953 373.133 175.262 383.216L155.85 408.664Z" fill="#9CE6D0"/>
<path d="M203.867 216.875C200.826 225.159 196.073 231.873 190.898 236.046C185.704 240.234 180.241 241.758 175.646 240.071C171.05 238.384 167.87 233.688 166.619 227.135C165.373 220.604 166.092 212.409 169.133 204.125C172.174 195.841 176.927 189.127 182.103 184.954C187.297 180.766 192.759 179.242 197.355 180.929C201.95 182.616 205.13 187.312 206.381 193.865C207.628 200.396 206.908 208.591 203.867 216.875Z" fill="white" stroke="black" stroke-width="2"/>
<path d="M249.003 210.807C248.856 219.63 246.576 227.534 243.062 233.178C239.534 238.841 234.877 242.077 229.982 241.996C225.087 241.914 220.54 238.526 217.203 232.749C213.877 226.991 211.861 219.016 212.008 210.193C212.154 201.369 214.434 193.465 217.949 187.822C221.476 182.158 226.133 178.923 231.028 179.004C235.923 179.085 240.47 182.474 243.807 188.251C247.133 194.008 249.149 201.984 249.003 210.807Z" fill="white" stroke="black" stroke-width="2"/>
<path d="M199 253C206.5 248.667 222.4 243.2 226 256C229.6 268.8 219.167 270.667 213.5 270C218.667 275.167 226.5 286.7 216.5 291.5C206.5 296.3 199.333 288.167 197 283.5" stroke="black" stroke-width="2" stroke-linecap="round"/>
</svg>
