<svg width="654" height="751" viewBox="0 0 654 751" fill="none" xmlns="http://www.w3.org/2000/svg">
<path d="M362.858 163.756C401.155 123.688 468.464 140.103 484.015 193.302L565.009 470.374C580.56 523.573 532.69 573.657 478.842 560.525L198.395 492.132C144.547 479 125.108 412.501 163.404 372.434L362.858 163.756Z" fill="#FFFB94"/>
<path d="M352.677 298.151C350.296 307.916 345.881 316.155 340.72 321.591C335.537 327.049 329.766 329.531 324.589 328.268C319.411 327.005 315.431 322.146 313.343 314.914C311.263 307.713 311.137 298.366 313.518 288.601C315.9 278.836 320.314 270.597 325.476 265.162C330.659 259.703 336.43 257.222 341.607 258.484C346.784 259.747 350.765 264.607 352.853 271.838C354.933 279.039 355.059 288.386 352.677 298.151Z" fill="white" stroke="black" stroke-width="2"/>
<path d="M399.42 309.55C397.039 319.315 392.624 327.555 387.463 332.99C382.28 338.448 376.509 340.93 371.332 339.667C366.155 338.405 362.174 333.545 360.086 326.313C358.006 319.112 357.88 309.766 360.262 300C362.643 290.235 367.058 281.996 372.219 276.561C377.402 271.103 383.173 268.621 388.35 269.883C393.527 271.146 397.508 276.006 399.596 283.237C401.676 290.438 401.802 299.785 399.42 309.55Z" fill="white" stroke="black" stroke-width="2"/>
<path d="M298.05 286.537C316.579 278.248 365.809 271.981 414.496 313.227" stroke="black" stroke-width="2" stroke-linecap="round"/>
<ellipse cx="340.616" cy="288.806" rx="2.48861" ry="9.12491" transform="rotate(13.7053 340.616 288.806)" fill="black"/>
<path d="M409.619 636C378.278 636 354.788 607.3 360.984 576.577L410.108 333L458.291 576.765C464.354 607.435 440.882 636 409.619 636Z" fill="#B0D9D6"/>
<ellipse cx="370.436" cy="296.078" rx="2.48861" ry="9.12491" transform="rotate(13.7053 370.436 296.078)" fill="black"/>
<path d="M320.255 368.798C327.766 363.088 345.133 356.764 354.506 377.151" stroke="black" stroke-width="2" stroke-linecap="round"/>
</svg>
